<?xml version="1.0" encoding="UTF-8" standalone="no"?>
<svg width="30px" height="20px" viewBox="0 0 30 20" version="1.1" xmlns="http://www.w3.org/2000/svg" xmlns:xlink="http://www.w3.org/1999/xlink" xmlns:sketch="http://www.bohemiancoding.com/sketch/ns">
    <!-- Generator: Sketch 3.3.3 (12072) - http://www.bohemiancoding.com/sketch -->
    <title>i-keyframe</title>
    <desc>Created with Sketch.</desc>
    <defs></defs>
    <g id="Page-1" stroke="none" stroke-width="1" fill="none" fill-rule="evenodd" sketch:type="MSPage">
        <path d="M17.7117411,24.2857143 L12.1428571,24.2857143 L12.1428571,9.70420543 C8.01215865,8.82609401 5,6.0928782 5,2.85714286 C5,-1.08774821 9.4771525,-4.28571429 15,-4.28571429 C20.5228475,-4.28571429 25,-1.08774821 25,2.85714286 C25,6.0928782 21.9878414,8.82609401 17.8571429,9.70420543 L17.8571429,9.70420543 L17.8571429,15.7142857 L23.0835714,15.7142857 L23.0835714,24.2857143 L17.7117411,24.2857143 Z M15,6.42857143 C17.7614237,6.42857143 20,4.82958839 20,2.85714286 C20,0.884697322 17.7614237,-0.714285714 15,-0.714285714 C12.2385763,-0.714285714 10,0.884697322 10,2.85714286 C10,4.82958839 12.2385763,6.42857143 15,6.42857143 Z M17.3692857,18.8817551 L23.0835714,18.8817551 L23.0835714,21.1182449 L17.3692857,21.1182449 L17.3692857,18.8817551 Z" id="i-keyframe" fill="#FFFFFF" sketch:type="MSShapeGroup" transform="translate(15.000000, 10.000000) scale(-1, 1) rotate(90.000000) translate(-15.000000, -10.000000) "></path>
    </g>
</svg>