<?xml version="1.0" encoding="UTF-8" standalone="no"?>
<svg width="5px" height="24px" viewBox="0 0 5 24" version="1.1" xmlns="http://www.w3.org/2000/svg" xmlns:xlink="http://www.w3.org/1999/xlink" xmlns:sketch="http://www.bohemiancoding.com/sketch/ns">
    <!-- Generator: Sketch 3.3.3 (12072) - http://www.bohemiancoding.com/sketch -->
    <title>i-more</title>
    <desc>Created with Sketch.</desc>
    <defs></defs>
    <g id="Page-1" stroke="none" stroke-width="1" fill="none" fill-rule="evenodd" sketch:type="MSPage">
        <path d="M2.5,5.40909091 C3.88071187,5.40909091 5,4.28980278 5,2.90909091 C5,1.52837903 3.88071187,0.409090909 2.5,0.409090909 C1.11928813,0.409090909 0,1.52837903 0,2.90909091 C0,4.28980278 1.11928813,5.40909091 2.5,5.40909091 Z M2.5,14.5 C3.88071187,14.5 5,13.3807119 5,12 C5,10.6192881 3.88071187,9.5 2.5,9.5 C1.11928813,9.5 0,10.6192881 0,12 C0,13.3807119 1.11928813,14.5 2.5,14.5 Z M2.5,23.5909091 C3.88071187,23.5909091 5,22.471621 5,21.0909091 C5,19.7101972 3.88071187,18.5909091 2.5,18.5909091 C1.11928813,18.5909091 0,19.7101972 0,21.0909091 C0,22.471621 1.11928813,23.5909091 2.5,23.5909091 Z" id="i-more" fill="#FFFFFF" sketch:type="MSShapeGroup"></path>
    </g>
</svg>