<?xml version="1.0" encoding="UTF-8" standalone="no"?>
<svg width="18px" height="20px" viewBox="0 0 18 20" version="1.1" xmlns="http://www.w3.org/2000/svg" xmlns:xlink="http://www.w3.org/1999/xlink" xmlns:sketch="http://www.bohemiancoding.com/sketch/ns">
    <!-- Generator: Sketch 3.4.3 (16044) - http://www.bohemiancoding.com/sketch -->
    <title>i-watch</title>
    <desc>Created with Sketch.</desc>
    <defs></defs>
    <g id="icons" stroke="none" stroke-width="1" fill="none" fill-rule="evenodd" sketch:type="MSPage">
        <path d="M8.64864865,11.8918919 L8.64864865,8.64864865 L6.48648649,8.64864865 L6.48648649,12.972973 L6.48648649,14.0540541 L10.8108108,14.0540541 L10.8108108,11.8918919 L8.64864865,11.8918919 Z M6.48648649,3.97685103 C2.78654098,4.72126895 0,7.98965483 0,11.9088722 C0,16.3774787 3.6225213,20 8.09112778,20 C12.5597343,20 16.1822556,16.3774787 16.1822556,11.9088722 C16.1822556,10.6996897 15.9170086,9.55245884 15.4415252,8.52219046 L17.5484387,6.69067849 L15.4206797,4.24297174 L13.5120462,5.90212151 C12.4636352,4.95536352 11.1661607,4.27920731 9.72972973,3.98375993 L9.72972973,2.16216216 L6.48648649,2.16216216 L6.48648649,3.97685103 Z M8.09112778,17.7753997 C11.3311215,17.7753997 13.9576553,15.1488659 13.9576553,11.9088722 C13.9576553,8.66887854 11.3311215,6.0423447 8.09112778,6.0423447 C4.85113409,6.0423447 2.22460025,8.66887854 2.22460025,11.9088722 C2.22460025,15.1488659 4.85113409,17.7753997 8.09112778,17.7753997 Z M4.32432432,0 L11.8918919,0 L11.8918919,2.16216216 L4.32432432,2.16216216 L4.32432432,0 Z" id="i-watch" fill="#FFFFFF" sketch:type="MSShapeGroup"></path>
    </g>
</svg>